:version 1.10
:name ASF
:units
  mass 1
  length 1
  angle deg
:documentation
  ASF file generated by Kaydara
:root
  axis xyz
  order  tx ty tz rx ry rz
  position 0 0 0
  orientation 0 0 0
:bonedata
  begin
    id 1
    name RightUpLegDummy
    direction -1 2.30186e-007 8.31532e-007
    length 4.46685
    axis 0 0 0 xyz
  end
  begin
    id 2
    name RightUpLeg
    direction -2.30187e-007 -1 1.24343e-010
    length 16.4045
    axis -3.49089 -0.000906625 0.000286804 xyz
    dof rx ry rz
  end
  begin
    id 3
    name RightLeg
    direction -2.30181e-007 -1 -4.17157e-009
    length 17.5097
    axis 3.68512 0.0193738 -0.131023 xyz
    dof rx ry rz
  end
  begin
    id 4
    name RightFoot
    direction 8.31421e-007 -4.51202e-011 1
    length 6.49508
    axis 4.81691e-005 -0.120479 -0.188788 xyz
    dof rx ry rz
  end
  begin
    id 5
    name RightToes
    direction 0.00124746 -0.014064 0.9999
    length 3.85082
    axis 0.000481921 0.542163 -0.142578 xyz
    dof rx ry rz
  end
  begin
    id 6
    name SpineDummy
    direction 0.0717043 0.9409 -0.331007
    length 10.0032
    axis 0 0 0 xyz
  end
  begin
    id 7
    name Spine
    direction 2.30186e-007 1 4.58806e-011
    length 9.84055
    axis -0.001389 0.000121418 2.40972e-006 xyz
    dof rx ry rz
  end
  begin
    id 8
    name Spine1
    direction 0 0 0
    length 0
    axis -0.001389 0.000121451 1.30017e-006 xyz
    dof rx ry rz
  end
  begin
    id 9
    name HEadDummy
    direction -0.00347485 0.950688 -0.310128
    length 8.00997
    axis -0.001389 0.000121451 1.30017e-006 xyz
  end
  begin
    id 10
    name HEad
    direction -0.0222688 0.980941 0.193023
    length 5.12695
    axis -0.001389 0.000121451 1.30017e-006 xyz
    dof rx ry rz
  end
  begin
    id 11
    name LeftShoulder1Dummy
    direction 0.988871 0.146793 -0.0242004
    length 3.5792
    axis -0.001389 0.000121451 1.30017e-006 xyz
  end
  begin
    id 12
    name LeftShoulder1
    direction 0.993832 0.108932 0.020779
    length 4.16823
    axis -0.001389 0.000121451 1.30017e-006 xyz
    dof rx ry rz
  end
  begin
    id 13
    name LeftArm
    direction 1 3.44807e-006 -8.31404e-007
    length 9.91437
    axis -23.1894 0.134784 0.967509 xyz
    dof rx ry rz
  end
  begin
    id 14
    name LeftForeArm
    direction 1 3.44842e-006 -8.31581e-007
    length 9.08575
    axis -9.91835 -0.06569 -0.177793 xyz
    dof rx ry rz
  end
  begin
    id 15
    name LeftHand
    direction 0.992938 -0.0411636 0.11126
    length 5.32135
    axis -0.00960232 -0.00340091 0.185173 xyz
    dof rx ry rz
  end
  begin
    id 16
    name RightShoulderDummy
    direction -0.988871 0.146793 -0.0241962
    length 3.5792
    axis -0.001389 0.000121451 1.30017e-006 xyz
  end
  begin
    id 17
    name RightShoulder
    direction -0.993832 0.108933 0.0207785
    length 4.16823
    axis 0.215806 0.000203643 -0.0068026 xyz
    dof rx ry rz
  end
  begin
    id 18
    name RightArm
    direction -1 3.90912e-006 8.31284e-007
    length 9.91437
    axis -23.2009 -0.134239 -0.964101 xyz
    dof rx ry rz
  end
  begin
    id 19
    name RightForeArm
    direction -1 3.90882e-006 8.31502e-007
    length 9.08575
    axis -9.92322 0.0658061 0.178867 xyz
    dof rx ry rz
  end
  begin
    id 20
    name RightHand
    direction -0.992843 -0.0414603 0.112003
    length 5.28593
    axis -0.00960638 0.00330671 -0.185228 xyz
    dof rx ry rz
  end
  begin
    id 21
    name LeftUpLegDummy
    direction 1 -2.30186e-007 -8.31532e-007
    length 4.46685
    axis 0 0 0 xyz
  end
  begin
    id 22
    name LeftUpLeg
    direction -2.30187e-007 -1 6.00931e-010
    length 16.4045
    axis -3.48766 0.00143442 -0.000524262 xyz
    dof rx ry rz
  end
  begin
    id 23
    name LeftLeg
    direction -2.30187e-007 -1 1.6669e-009
    length 17.5097
    axis 3.68178 -0.00654042 -0.000285133 xyz
    dof rx ry rz
  end
  begin
    id 24
    name LeftFoot
    direction 8.31532e-007 -4.54478e-011 1
    length 6.49508
    axis 1.87233e-006 4.66016e-005 -8.6538e-006 xyz
    dof rx ry rz
  end
  begin
    id 25
    name LeftToes
    direction 0.00818058 -0.00485161 0.999955
    length 3.85048
    axis 1.06247e-005 4.65869e-005 -8.65513e-006 xyz
    dof rx ry rz
  end
:hierarchy
  begin
    root RightUpLegDummy SpineDummy LeftUpLegDummy
    RightUpLegDummy RightUpLeg
    RightUpLeg RightLeg
    RightLeg RightFoot
    RightFoot RightToes
    SpineDummy Spine
    Spine Spine1
    Spine1 HEadDummy LeftShoulder1Dummy RightShoulderDummy
    HEadDummy HEad
    LeftShoulder1Dummy LeftShoulder1
    LeftShoulder1 LeftArm
    LeftArm LeftForeArm
    LeftForeArm LeftHand
    RightShoulderDummy RightShoulder
    RightShoulder RightArm
    RightArm RightForeArm
    RightForeArm RightHand
    LeftUpLegDummy LeftUpLeg
    LeftUpLeg LeftLeg
    LeftLeg LeftFoot
    LeftFoot LeftToes
  end

:SAMPLES-PER-SECOND 30
:FULLY-SPECIFIED
:DEGREES
48
root  -70.3532 26.8161 -23.5537 15.5336 43.7685 -0.684857
RightUpLeg  -51.6764 -3.65495 -23.9969
RightLeg  62.5452 5.82577 9.44099
RightFoot  -12.3785 -0.101064 -0.554399
RightToes  -61.1865 -0.405776 -0.401158
Spine  18.672 -0.507722 0.404482
Spine1  30.1979 -1.43328 0.343341
HEad  9.78989 1.10879 3.24429
LeftShoulder1  0 -2.42657e-020 -4.95415e-022
LeftArm  -17.0883 -43.2086 -85.149
LeftForeArm  56.8298 -47.0179 -10.8789
LeftHand  0.369637 -13.324 -3.53565
RightShoulder  0 2.42657e-020 1.07489e-018
RightArm  -33.079 33.4799 94.7576
RightForeArm  27.4956 25.9047 4.90729
RightHand  -0.631068 22.549 -2.7955
LeftUpLeg  -41.3073 8.02201 32.4249
LeftLeg  46.562 -15.3816 -13.8434
LeftFoot  -3.9553 -0.0388163 -1.1241
LeftToes  -63.5257 8.63562e-007 1.17448e-007
49
root  -71.5066 26.2542 -22.5955 18.3483 45.987 0.951007
RightUpLeg  -55.7669 -5.07604 -22.8361
RightLeg  69.0046 4.3782 9.28256
RightFoot  -16.7124 -0.195713 -0.954845
RightToes  -58.8602 -0.383817 -0.395175
Spine  19.8625 -1.99946 1.65656
Spine1  31.2232 -5.06228 3.08686
HEad  7.31156 1.0773 1.89281
LeftShoulder1  0 -2.42657e-020 -4.95415e-022
LeftArm  -12.1322 -48.6696 -89.6926
LeftForeArm  58.6631 -35.281 -7.1186
LeftHand  0.419432 -14.0495 -3.77463
RightShoulder  0 2.42657e-020 1.07489e-018
RightArm  -37.6719 39.4207 94.9967
RightForeArm  26.6582 22.0933 4.09907
RightHand  -0.165096 22.2316 -0.470378
LeftUpLeg  -44.0441 8.32115 33.4716
LeftLeg  45.7765 -14.9025 -13.0857
LeftFoot  -0.242271 -0.0067762 -3.20419
LeftToes  -63.315 8.63562e-007 1.17448e-007
50
root  -72.6456 25.8469 -21.7241 21.0168 47.5577 2.5544
RightUpLeg  -59.8275 -4.80222 -21.7115
RightLeg  74.3876 2.73911 7.54539
RightFoot  -19.499 -0.17346 -0.63198
RightToes  -56.6024 -0.362756 -0.38852
Spine  20.9393 -2.89742 3.14569
Spine1  31.9412 -7.60168 6.25788
HEad  4.86924 0.212292 0.930963
LeftShoulder1  0 -2.42657e-020 -4.95415e-022
LeftArm  -6.86553 -54.5629 -97.8646
LeftForeArm  60.1554 -23.5385 -4.35182
LeftHand  0.990646 -13.972 -8.44539
RightShoulder  0 2.42657e-020 1.07489e-018
RightArm  -45.5683 45.0324 92.907
RightForeArm  26.4275 17.6029 3.20263
RightHand  -0.0790967 22.9854 -0.0190192
LeftUpLeg  -46.6811 9.55474 33.1095
LeftLeg  45.1021 -11.2225 -9.74896
LeftFoot  4.51874 0.200582 -5.08065
LeftToes  -59.2359 8.63562e-007 1.17448e-007
51
root  -73.7183 25.6591 -20.9874 23.6425 49.0819 3.89179
RightUpLeg  -63.1793 -4.65127 -20.2875
RightLeg  77.854 1.7175 5.72859
RightFoot  -21.2376 -0.110621 -0.212481
RightToes  -53.6423 -0.335569 -0.378548
Spine  21.5439 -3.34436 4.93467
Spine1  32.0741 -8.83102 9.13306
HEad  2.9497 -0.559478 0.0330584
LeftShoulder1  0 -2.42657e-020 -4.95415e-022
LeftArm  0.643528 -57.7148 -106.421
LeftForeArm  64.5033 -15.6678 -2.77508
LeftHand  1.68905 -13.4006 -14.6812
RightShoulder  0 2.42657e-020 1.07489e-018
RightArm  -55.9244 49.7812 86.8073
RightForeArm  28.4514 12.8006 2.29311
RightHand  0.0434185 23.0246 0.583343
LeftUpLeg  -49.9314 13.1026 30.1392
LeftLeg  44.8083 -5.4677 -4.76227
LeftFoot  7.92195 0.360163 -5.19795
LeftToes  -45.5304 8.63562e-007 1.17448e-007
52
root  -74.6089 25.7259 -20.368 26.2281 49.7566 5.94536
RightUpLeg  -65.3052 -4.18865 -19.6549
RightLeg  79.5753 1.18372 4.33929
RightFoot  -21.9972 -0.0471559 0.134925
RightToes  -51.9224 -0.320021 -0.372113
Spine  21.8253 -3.34671 6.2524
Spine1  32.3273 -8.53337 10.5099
HEad  1.57071 -0.621873 -1.6121
LeftShoulder1  0 -2.42657e-020 -4.95415e-022
LeftArm  8.5091 -57.751 -112.782
LeftForeArm  66.1154 -11.4819 -1.99237
LeftHand  1.80223 -12.4754 -16.7567
RightShoulder  0 2.42657e-020 1.07489e-018
RightArm  -67.0102 52.8702 77.7643
RightForeArm  29.8351 8.14197 1.44544
RightHand  0.302887 20.7872 2.02185
LeftUpLeg  -51.9118 16.443 25.6644
LeftLeg  44.3431 -1.9415 -1.67305
LeftFoot  9.18052 0.370277 -4.60946
LeftToes  -35.188 8.63562e-007 1.17448e-007
53
root  -75.3208 26.0136 -19.8678 28.5096 49.7531 8.09297
RightUpLeg  -66.4601 -4.02836 -19.231
RightLeg  79.8945 1.16259 4.35543
RightFoot  -21.7778 -0.0830224 -0.0540315
RightToes  -49.0637 -0.294627 -0.360394
Spine  21.7043 -3.17575 7.12345
Spine1  32.1964 -7.93113 11.4586
HEad  1.11198 -0.995798 -2.89126
LeftShoulder1  0 -2.42657e-020 -4.95415e-022
LeftArm  11.1438 -54.8315 -114.419
LeftForeArm  65.2855 -12.0673 -2.10164
LeftHand  1.55631 -12.7022 -14.2921
RightShoulder  0 2.42657e-020 1.07489e-018
RightArm  -73.8049 52.6219 68.9214
RightForeArm  30.148 7.26434 1.28844
RightHand  0.27818 20.0759 1.94208
LeftUpLeg  -52.329 15.1934 23.4855
LeftLeg  44.5385 0.0169788 0.0084725
LeftFoot  9.23252 0.328078 -4.06152
LeftToes  -32.4968 8.63562e-007 1.17448e-007
54
root  -75.8945 26.5187 -19.37 29.6058 49.1951 9.20515
RightUpLeg  -66.4895 -3.16822 -18.5622
RightLeg  78.4479 1.11856 3.77481
RightFoot  -21.3003 -0.0888474 -0.0949159
RightToes  -46.9757 -0.276467 -0.351042
Spine  21.4927 -2.78298 7.47303
Spine1  32.0724 -7.14105 12.1273
HEad  1.26585 -1.15909 -3.83085
LeftShoulder1  0 -2.42657e-020 -4.95415e-022
LeftArm  10.6796 -51.1899 -112.279
LeftForeArm  61.8451 -15.0268 -2.66013
LeftHand  1.31686 -13.8257 -11.2051
RightShoulder  0 2.42657e-020 1.07489e-018
RightArm  -76.213 50.632 63.772
RightForeArm  26.3152 10.4029 1.85471
RightHand  0.546767 20.2748 3.42833
LeftUpLeg  -51.7363 12.9387 22.0695
LeftLeg  46.0904 2.68298 2.44172
LeftFoot  8.34392 0.239561 -3.28332
LeftToes  -32.4747 8.63562e-007 1.17448e-007
55
root  -76.3717 27.2419 -18.8387 29.7407 48.6931 9.56472
RightUpLeg  -65.0557 -1.55729 -17.566
RightLeg  75.547 1.09005 3.06915
RightFoot  -19.9502 -0.0812536 -0.0844373
RightToes  -45.776 -0.26619 -0.345372
Spine  21.1864 -2.61546 7.33539
Spine1  32.0197 -6.76048 11.9744
HEad  1.56605 0.220023 -5.20736
LeftShoulder1  0 -2.42657e-020 -4.95415e-022
LeftArm  6.90835 -47.585 -107.068
LeftForeArm  56.0261 -18.5589 -3.35137
LeftHand  1.05825 -13.7837 -9.11301
RightShoulder  0 2.42657e-020 1.07489e-018
RightArm  -69.5501 47.0447 63.0069
RightForeArm  18.9055 17.3945 3.16316
RightHand  1.15909 20.8767 6.65758
LeftUpLeg  -49.9609 10.113 21.3228
LeftLeg  47.2573 6.08822 5.75566
LeftFoot  9.89034 0.179308 -2.07213
LeftToes  -33.6919 8.63562e-007 1.17448e-007
56
root  -76.7488 28.1053 -18.362 29.4491 48.4815 9.59458
RightUpLeg  -62.6274 0.178424 -16.6828
RightLeg  71.3771 0.851555 1.88822
RightFoot  -18.667 -0.0446595 0.105829
RightToes  -43.1594 -0.244201 -0.332265
Spine  20.3246 -2.81322 6.68659
Spine1  31.127 -7.27843 11.3373
HEad  2.63725 2.51219 -6.80391
LeftShoulder1  0 -2.42657e-020 -4.95415e-022
LeftArm  -0.492963 -42.7324 -100.743
LeftForeArm  52.005 -21.6904 -3.98587
LeftHand  0.792394 -13.1394 -7.24593
RightShoulder  0 2.42657e-020 1.07489e-018
RightArm  -60.7124 41.158 64.8288
RightForeArm  21.1787 25.1149 4.73681
RightHand  0.477761 21.1115 2.93431
LeftUpLeg  -48.7131 7.3929 20.2944
LeftLeg  49.4003 8.47517 8.58662
LeftFoot  11.6856 0.0677691 -0.662257
LeftToes  -30.703 8.63562e-007 1.17448e-007
57
root  -76.993 29.0367 -17.9031 28.5042 47.9681 9.34694
RightUpLeg  -59.1183 1.80164 -15.6802
RightLeg  66.2375 0.739182 1.29164
RightFoot  -16.9862 -0.0385323 0.119516
RightToes  -41.282 -0.228805 -0.322249
Spine  19.3147 -3.16944 5.57481
Spine1  30.093 -8.26592 10.4375
HEad  3.9024 5.51196 -9.54374
LeftShoulder1  0 -2.42657e-020 -4.95415e-022
LeftArm  -9.44196 -37.3335 -95.2358
LeftForeArm  49.71 -23.6602 -4.39873
LeftHand  0.470845 -12.3141 -4.73516
RightShoulder  0 2.42657e-020 1.07489e-018
RightArm  -53.7227 33.9165 67.2206
RightForeArm  13.627 34.6976 7.01003
RightHand  0.536682 20.2288 3.37894
LeftUpLeg  -47.3658 5.64909 18.7573
LeftLeg  51.8053 7.46867 8.24203
LeftFoot  12.0817 0.0309832 -0.292787
LeftToes  -28.3866 8.63562e-007 1.17448e-007
